<svg id="Layer_1" data-name="Layer 1" xmlns="http://www.w3.org/2000/svg" viewBox="0 0 949.56 88.42"><defs><style>.cls-1{fill:#ffffff;}</style></defs><title>bc-logo</title><path class="cls-1" d="M.15,77.28V72.85q0-5.1-.08-11.41T0,46.69V2.94L1.76,1.6H63.81a17.93,17.93,0,0,1,5.71.81A28.48,28.48,0,0,1,76,5.09a22.14,22.14,0,0,1,5.26,4.09,7.89,7.89,0,0,1,2.34,5L85,34.74c0,1.35-.76,3-2.27,5s-4.12,4-7.83,6.11A15.25,15.25,0,0,0,78,48.5a29,29,0,0,0,3.15,1.88,12.54,12.54,0,0,1,1.39.73c1,1.35,1.76,2.49,2.34,3.42a16.9,16.9,0,0,1,1.39,2.69A10.22,10.22,0,0,1,86.93,60c.1,1,.15,2.34.15,4a53.1,53.1,0,0,1-.73,8.66,21.89,21.89,0,0,1-2.86,7.85,16.49,16.49,0,0,1-5.85,5.7,18.87,18.87,0,0,1-9.73,2.22H4.24L2.78,87.07A19.86,19.86,0,0,0,.59,82.24c0-.08,0-.6-.15-1.54S.29,79,.29,78.49Zm48-42.8c1.07,0,1.8-.72,2.19-2.15a14.56,14.56,0,0,0,.59-3.76V26.29a3,3,0,0,0-.22-1c-.15-.4-.71-.64-1.68-.73H34.68V35ZM35.56,59.7a29.94,29.94,0,0,0,.22,4A20.48,20.48,0,0,0,37.17,68H43c1.46,0,2.82,0,4.09-.07a8.84,8.84,0,0,0,3.3-.67,4.72,4.72,0,0,0,2.19-1.88,6.59,6.59,0,0,0,.81-3.55c0-.27,0-.76-.08-1.48A14.48,14.48,0,0,0,53,58.09,5.68,5.68,0,0,0,52,56a2,2,0,0,0-1.69-.87H37.17a1.24,1.24,0,0,0-1.39,1,10.12,10.12,0,0,0-.22,2.08Z" transform="translate(0 0)"/><path class="cls-1" d="M92.64,75.13q0-15,.44-30T94.25,15a24.52,24.52,0,0,1,.22-2.89c.14-1.2.29-2.36.44-3.48s.29-2.1.44-3a4.24,4.24,0,0,1,.36-1.41l1.47-1.34H125l2.93,1.34c.09,2,.14,3.18.14,3.63q0,5.5-.22,10.46c-.14,3.32-.34,6.6-.58,9.87s-.44,6.57-.59,9.93-.22,6.82-.22,10.39V60.64l2.93,2h29.71c0,.45,0,1.41-.07,2.89s-.1,3.08-.15,4.83-.1,3.35-.15,4.83-.07,2.44-.07,2.88a20,20,0,0,1-.22,2.69c-.14,1.07-.29,2.1-.44,3.08s-.29,1.84-.44,2.55-.27,1.08-.36,1.08H94.25l-1.47-1.35-.14-1.34Z" transform="translate(0 0)"/><path class="cls-1" d="M472,72.14V40.61c0-.54,0-1.66.07-3.36s.12-3.55.22-5.56.22-4,.37-5.84.26-3.26.36-4.16a35.91,35.91,0,0,1,2.2-10.33,13,13,0,0,1,4.83-6,19.67,19.67,0,0,1,8.49-2.82,108.64,108.64,0,0,1,13.17-.67h44.49l.88-.13c1.85,0,3.07.6,3.65,1.81a8,8,0,0,1,.88,3.55V23.3l-1.31,1.61H512.42l-2.63,2.82q-.3,4-.52,6.84t-.51,5.91c-.2,2.05-.34,3.84-.44,5.36V57c0,1,.05,2,.15,3a10.94,10.94,0,0,0,.58,2.75,5.53,5.53,0,0,0,1.25,2,2.84,2.84,0,0,0,2.12.81H549l2.78,1.74c.09.9.14,1.7.14,2.42v8.58c0,1,0,1.79-.07,2.42s-.07,1-.07,1.21a10.45,10.45,0,0,1-.15,1.61c-.1.62-.22,1.25-.36,1.88s-.3,1.14-.44,1.54-.27.6-.37.6H489.59a18.12,18.12,0,0,1-7.32-1.34,15.47,15.47,0,0,1-5.12-3.49,16.83,16.83,0,0,1-3.29-5A28.07,28.07,0,0,1,472,72.14Z" transform="translate(0 0)"/><path class="cls-1" d="M615.89,76.84,603.6,76.7c-4.49,0-7.59.5-9.3,1.48A7.19,7.19,0,0,0,591,81.47a7.73,7.73,0,0,0-.66,3.28c0,1-.36,1.48-1.24,1.48H560.28a7.66,7.66,0,0,1-1.1-.13,8.5,8.5,0,0,1-1.54-.41,7.59,7.59,0,0,1-1.31-.6c-.4-.22-.59-.47-.59-.74l.15-.8q7-20.94,14.56-40.93T585.16,1.7h47.56l23.85,85.87H620.28a1.71,1.71,0,0,1-1.9-1.47,17,17,0,0,1-.3-3.36,22.33,22.33,0,0,0-.29-3.76A2.42,2.42,0,0,0,615.89,76.84Zm-8-40.79c-1.07,0-2,.82-2.78,2.48a27.62,27.62,0,0,0-1.9,5.64q-.74,3.15-1.17,6.1a33.27,33.27,0,0,0-.44,3.76h11.12a32.35,32.35,0,0,0-1.46-9.19c-1-3.27-1.86-6.15-2.64-8.66Z" transform="translate(0 0)"/><path class="cls-1" d="M659.5.76h33.66a4,4,0,0,1,3.07,1.81,29.13,29.13,0,0,1,2.93,4.56c1,1.84,2,3.87,3,6.11a66.53,66.53,0,0,0,3.37,6.44,33.75,33.75,0,0,0,4,5.5,11.86,11.86,0,0,0,4.83,3.35V2.1l2.2-1.34,2.19-.07c1.37,0,2.39-.07,3.07-.07q6.74,0,12.44.34t13,1.14V28.94q-.15,4.29-.37,10.19c-.14,3.94-.32,8-.51,12.28s-.42,8.48-.66,12.68-.46,8-.66,11.27-.44,7.07-.73,11.27L742.92,88H716L693.16,54.43H691v32.2c0,.27-.34.5-1,.67a20,20,0,0,1-2.63.47c-1.08.14-2.23.23-3.44.27s-2.32.07-3.3.07h-2.63c-.68,0-1.68,0-3-.07L672.67,88l-3.73-.33c-1.52-.13-3-.27-4.32-.4s-3.07-.34-5.12-.61Z" transform="translate(0 0)"/><path class="cls-1" d="M753.75,87.57,753.89.62l70.69.27a15,15,0,0,1,8.71,2.28,15,15,0,0,1,5.05,6,26.13,26.13,0,0,1,2.27,8.26,82,82,0,0,1,.51,9.12c0,2.33,0,4.56-.15,6.71s-.14,4.07-.14,5.77v8.18c0,1.88,0,3.56-.08,5s-.14,3-.29,4.49-.32,3.15-.51,4.9-.44,3.82-.73,6.24A14.88,14.88,0,0,1,835.63,76,28.85,28.85,0,0,1,828,82.41a41.15,41.15,0,0,1-9.73,4.09A37.07,37.07,0,0,1,808.34,88H808Zm32.78-26.43,2.93,2.68a4,4,0,0,1,.66.14,6.48,6.48,0,0,0,1.53.13,22.86,22.86,0,0,0,8.12-1.21,10.87,10.87,0,0,0,4.83-3.35,11.94,11.94,0,0,0,2.27-5.17,34.89,34.89,0,0,0,.59-6.64,65.48,65.48,0,0,0-.44-7.24V25a6.52,6.52,0,0,0-4.47-3.35,26.26,26.26,0,0,0-5.78-.67h-5.85a7,7,0,0,0-3.22.67c-.88.45-1.32,1.66-1.32,3.62Z" transform="translate(0 0)"/><path class="cls-1" d="M878,51.75,844.48,3.58V.89H884l11.56,21.34a3.44,3.44,0,0,0,.66.73,3.55,3.55,0,0,0,.8.61,4.59,4.59,0,0,0,.73.13,4.46,4.46,0,0,0,.74-.13,3.55,3.55,0,0,0,.8-.61,3.44,3.44,0,0,0,.66-.73L910.63.89h38.93L913.85,53V85.16l-3.65,2.68H878Z" transform="translate(0 0)"/><path class="cls-1" d="M266.64,72.14V40.61c0-.54,0-1.66.07-3.36s.12-3.55.22-5.56.22-4,.37-5.84.27-3.27.36-4.16a35.91,35.91,0,0,1,2.2-10.33,13,13,0,0,1,4.83-6,19.67,19.67,0,0,1,8.49-2.82,108.64,108.64,0,0,1,13.17-.67h44.49l.88-.13c1.85,0,3.07.6,3.65,1.81a8,8,0,0,1,.88,3.55V23.3l-1.31,1.61H307l-2.63,2.82q-.3,4-.52,6.84t-.51,5.9c-.19,2.06-.34,3.85-.44,5.37V57c0,1,.05,2,.15,3a10.93,10.93,0,0,0,.59,2.75,5.38,5.38,0,0,0,1.24,2,2.86,2.86,0,0,0,2.12.81h36.59l2.78,1.74a22,22,0,0,1,.15,2.42v8.58c0,1,0,1.79-.08,2.42s-.07,1-.07,1.21a10.56,10.56,0,0,1-.15,1.61c-.1.62-.22,1.25-.36,1.87a16.1,16.1,0,0,1-.44,1.55c-.15.4-.27.6-.37.6H284.2a18.29,18.29,0,0,1-7.32-1.34,15.58,15.58,0,0,1-5.12-3.49,17.16,17.16,0,0,1-3.29-5A28.07,28.07,0,0,1,266.64,72.14Z" transform="translate(0 0)"/><path class="cls-1" d="M354,3.17H388.4V27.32a10.27,10.27,0,0,0,1.1-.6,7.4,7.4,0,0,0,1.1-.74q1-1.34,3.73-4.76T400.11,14q3.08-3.81,5.71-7.24t3.66-4.9a5.87,5.87,0,0,1,1.46-.74c.78-.31,1.27-.51,1.46-.6h1.47c1.26,0,3.51,0,6.73.13s6.61.2,10.17.34,6.93.29,10.1.47,5.39.31,6.66.4v4l-30,35.29v2.28q1,1.34,3.14,4.22c1.41,1.93,3,4.1,4.68,6.51s3.54,5,5.49,7.65,3.78,5.23,5.49,7.65S439.6,74,441,76s2.47,3.34,3.15,4.23a11.67,11.67,0,0,1,.51,1.21c.25.63.51,1.27.81,1.94s.56,1.3.8,1.88.42,1,.51,1.28a1.08,1.08,0,0,1,.22.6,5.22,5.22,0,0,1,.08.74H409.77q-.58-.95-2.34-3.42c-1.17-1.66-2.44-3.42-3.81-5.3s-2.66-3.65-3.88-5.3-2.07-2.84-2.56-3.56a5,5,0,0,0-.73-.87,17.75,17.75,0,0,0-1.32-1.21L393.74,67c-.44-.35-.75-.62-.95-.8L389,66.1V87.7H352.11V81.27c0-3,0-6.29.14-10s.15-7.63.15-11.74v-17q0-3.77.07-6.64c0-1.93.08-3.43.08-4.5s0-3,.14-5.64.22-5.52.37-8.52.31-5.81.51-8.45S353.91,4.25,354,3.17Z" transform="translate(0 0)"/><path class="cls-1" d="M177.91.14C183-2.61,253.65,36,253.65,42.93c0,6.08-72.41,44.64-75.74,42.79C173.54,83.29,173.69,2.43,177.91.14Z" transform="translate(0 0)"/></svg>